<?xml version="1.0" encoding="UTF-8" standalone="no"?>
<!DOCTYPE svg PUBLIC "-//W3C//DTD SVG 1.1//EN"
 "http://www.w3.org/Graphics/SVG/1.1/DTD/svg11.dtd">
<!-- Generated by graphviz version 2.26.3 (20100126.1600)
 -->
<!-- Title: SportOntology Pages: 1 -->
<svg width="850pt" height="814pt"
 viewBox="0.00 0.00 849.87 814.06" xmlns="http://www.w3.org/2000/svg" xmlns:xlink="http://www.w3.org/1999/xlink">
<g id="graph1" class="graph" transform="scale(1 1) rotate(0) translate(4 810.055)">
<title>SportOntology</title>
<polygon fill="white" stroke="white" points="-4,5 -4,-810.055 846.873,-810.055 846.873,5 -4,5"/>
<text text-anchor="middle" x="420.936" y="-7.2" font-family="Arial" font-size="12.00">Sport Ontology</text>
<!-- Athlete -->
<g id="node1" class="node"><title>Athlete</title>
<polygon fill="#78a9ff" stroke="#0443cc" points="527.83,-668.715 471.83,-668.715 471.83,-632.715 527.83,-632.715 527.83,-668.715"/>
<text text-anchor="middle" x="499.83" y="-646.115" font-family="Times New Roman,serif" font-size="14.00">Athlete</text>
</g>
<!-- Person -->
<g id="node2" class="node"><title>Person</title>
<polygon fill="#78a9ff" stroke="#0443cc" points="294.861,-795.103 214.861,-795.103 214.861,-759.103 294.861,-759.103 294.861,-795.103"/>
<text text-anchor="middle" x="254.861" y="-772.503" font-family="Times New Roman,serif" font-size="14.00">foaf:Person</text>
</g>
<!-- Athlete&#45;&gt;Person -->
<g id="edge2" class="edge"><title>Athlete&#45;&gt;Person</title>
<path fill="none" stroke="black" d="M471.729,-665.213C429.492,-687.005 349.261,-728.398 299.115,-754.271"/>
<polygon fill="black" stroke="black" points="297.4,-751.217 290.118,-758.913 300.609,-757.438 297.4,-751.217"/>
<text text-anchor="middle" x="386.966" y="-721.041" font-family="Times New Roman,serif" font-size="10.00">subClassOf</text>
</g>
<!-- firstName -->
<g id="node27" class="node"><title>firstName</title>
<ellipse fill="#eeeeee" stroke="gray" cx="424.277" cy="-787.055" rx="33.0736" ry="18"/>
<text text-anchor="middle" x="424.277" y="-784.055" font-family="Times New Roman,serif" font-size="10.00">firstName</text>
</g>
<!-- Athlete&#45;&gt;firstName -->
<g id="edge4" class="edge"><title>Athlete&#45;&gt;firstName</title>
<path fill="none" stroke="black" d="M489.797,-668.82C475.186,-695.186 448.234,-743.823 433.873,-769.738"/>
<text text-anchor="middle" x="445.741" y="-707.448" font-family="Times New Roman,serif" font-size="10.00">rdfs:Literal</text>
</g>
<!-- Team -->
<g id="node3" class="node"><title>Team</title>
<polygon fill="#78a9ff" stroke="#0443cc" points="640.907,-605.747 586.907,-605.747 586.907,-569.747 640.907,-569.747 640.907,-605.747"/>
<text text-anchor="middle" x="613.907" y="-583.147" font-family="Times New Roman,serif" font-size="14.00">Team</text>
</g>
<!-- Team&#45;&gt;Athlete -->
<g id="edge24" class="edge"><title>Team&#45;&gt;Athlete</title>
<path fill="none" stroke="black" d="M586.872,-602.669C571.863,-610.954 552.977,-621.379 536.637,-630.398"/>
<polygon fill="black" stroke="black" points="534.925,-627.345 527.862,-635.242 538.308,-633.473 534.925,-627.345"/>
<text text-anchor="middle" x="548.381" y="-604.948" font-family="Times New Roman,serif" font-size="10.00">teamMate</text>
<text text-anchor="middle" x="548.381" y="-592.948" font-family="Times New Roman,serif" font-size="10.00">(subPropertyOf foaf:member)</text>
</g>
<!-- Group -->
<g id="node6" class="node"><title>Group</title>
<polygon fill="#78a9ff" stroke="#0443cc" points="627.558,-793.444 549.558,-793.444 549.558,-757.444 627.558,-757.444 627.558,-793.444"/>
<text text-anchor="middle" x="588.558" y="-770.844" font-family="Times New Roman,serif" font-size="14.00">foaf:Group</text>
</g>
<!-- Team&#45;&gt;Group -->
<g id="edge20" class="edge"><title>Team&#45;&gt;Group</title>
<path fill="none" stroke="black" d="M611.43,-606.086C606.989,-638.97 597.645,-708.163 592.377,-747.163"/>
<polygon fill="black" stroke="black" points="588.877,-746.928 591.007,-757.307 595.814,-747.865 588.877,-746.928"/>
<text text-anchor="middle" x="619.214" y="-680.736" font-family="Times New Roman,serif" font-size="10.00">subClassOf</text>
</g>
<!-- SportsClub -->
<g id="node9" class="node"><title>SportsClub</title>
<polygon fill="#78a9ff" stroke="#0443cc" points="486.442,-479.756 406.442,-479.756 406.442,-443.756 486.442,-443.756 486.442,-479.756"/>
<text text-anchor="middle" x="446.442" y="-457.156" font-family="Times New Roman,serif" font-size="14.00">SportsClub</text>
</g>
<!-- Team&#45;&gt;SportsClub -->
<g id="edge22" class="edge"><title>Team&#45;&gt;SportsClub</title>
<path fill="none" stroke="black" d="M589.914,-569.695C560.69,-547.709 511.209,-510.483 478.68,-486.009"/>
<polygon fill="black" stroke="black" points="480.487,-482.989 470.392,-479.774 476.278,-488.583 480.487,-482.989"/>
<text text-anchor="middle" x="539.351" y="-508.884" font-family="Times New Roman,serif" font-size="10.00">associatedSportsClub</text>
</g>
<!-- teamNumber -->
<g id="node28" class="node"><title>teamNumber</title>
<ellipse fill="#eeeeee" stroke="gray" cx="764.853" cy="-461.563" rx="39.7922" ry="18"/>
<text text-anchor="middle" x="764.853" y="-458.563" font-family="Times New Roman,serif" font-size="10.00">teamNumber</text>
</g>
<!-- Team&#45;&gt;teamNumber -->
<g id="edge26" class="edge"><title>Team&#45;&gt;teamNumber</title>
<path fill="none" stroke="black" d="M635.534,-569.668C665.044,-544.999 717.471,-501.173 745.657,-477.61"/>
<text text-anchor="middle" x="700.092" y="-531.224" font-family="Times New Roman,serif" font-size="10.00">xsd:int</text>
</g>
<!-- IndependentTeam -->
<g id="node4" class="node"><title>IndependentTeam</title>
<polygon fill="#78a9ff" stroke="#0443cc" points="823.981,-787.243 707.981,-787.243 707.981,-751.243 823.981,-751.243 823.981,-787.243"/>
<text text-anchor="middle" x="765.981" y="-764.643" font-family="Times New Roman,serif" font-size="14.00">IndependentTeam</text>
</g>
<!-- IndependentTeam&#45;&gt;Team -->
<g id="edge16" class="edge"><title>IndependentTeam&#45;&gt;Team</title>
<path fill="none" stroke="black" d="M750.844,-751.177C723.814,-718.917 667.152,-651.293 635.852,-613.937"/>
<polygon fill="black" stroke="black" points="638.314,-611.426 629.209,-606.009 632.949,-615.922 638.314,-611.426"/>
<text text-anchor="middle" x="676.166" y="-686.759" font-family="Times New Roman,serif" font-size="10.00">subClassOf</text>
</g>
<!-- InterdependentTeam -->
<g id="node5" class="node"><title>InterdependentTeam</title>
<polygon fill="#78a9ff" stroke="#0443cc" points="840.373,-613.572 710.373,-613.572 710.373,-577.572 840.373,-577.572 840.373,-613.572"/>
<text text-anchor="middle" x="775.373" y="-590.972" font-family="Times New Roman,serif" font-size="14.00">InterdependentTeam</text>
</g>
<!-- InterdependentTeam&#45;&gt;Team -->
<g id="edge18" class="edge"><title>InterdependentTeam&#45;&gt;Team</title>
<path fill="none" stroke="black" d="M710.164,-592.412C690.159,-591.442 668.833,-590.409 651.351,-589.562"/>
<polygon fill="black" stroke="black" points="651.167,-586.049 641.01,-589.06 650.829,-593.04 651.167,-586.049"/>
<text text-anchor="middle" x="675.606" y="-580.737" font-family="Times New Roman,serif" font-size="10.00">subClassOf</text>
</g>
<!-- SportOrganization -->
<g id="node7" class="node"><title>SportOrganization</title>
<polygon fill="#78a9ff" stroke="#0443cc" points="399.106,-418.459 281.106,-418.459 281.106,-382.459 399.106,-382.459 399.106,-418.459"/>
<text text-anchor="middle" x="340.106" y="-395.859" font-family="Times New Roman,serif" font-size="14.00">SportOrganization</text>
</g>
<!-- Organization -->
<g id="node10" class="node"><title>Organization</title>
<polygon fill="#78a9ff" stroke="#0443cc" points="251.232,-458.91 139.232,-458.91 139.232,-422.91 251.232,-422.91 251.232,-458.91"/>
<text text-anchor="middle" x="195.232" y="-436.31" font-family="Times New Roman,serif" font-size="14.00">foaf:Organization</text>
</g>
<!-- SportOrganization&#45;&gt;Organization -->
<g id="edge32" class="edge"><title>SportOrganization&#45;&gt;Organization</title>
<path fill="none" stroke="black" d="M280.762,-417.029C274.403,-418.804 267.905,-420.618 261.473,-422.415"/>
<polygon fill="black" stroke="black" points="260.139,-419.153 251.448,-425.214 262.021,-425.895 260.139,-419.153"/>
<text text-anchor="middle" x="269.004" y="-429.149" font-family="Times New Roman,serif" font-size="10.00">subClassOf</text>
</g>
<!-- Activity -->
<g id="node11" class="node"><title>Activity</title>
<polygon fill="#78a9ff" stroke="#0443cc" points="354.643,-528.835 294.643,-528.835 294.643,-492.835 354.643,-492.835 354.643,-528.835"/>
<text text-anchor="middle" x="324.643" y="-506.235" font-family="Times New Roman,serif" font-size="14.00">Activity</text>
</g>
<!-- SportOrganization&#45;&gt;Activity -->
<g id="edge34" class="edge"><title>SportOrganization&#45;&gt;Activity</title>
<path fill="none" stroke="black" d="M337.553,-418.685C335.124,-436.02 331.434,-462.36 328.62,-482.446"/>
<polygon fill="black" stroke="black" points="325.121,-482.192 327.2,-492.581 332.054,-483.164 325.121,-482.192"/>
<text text-anchor="middle" x="322.414" y="-451.362" font-family="Times New Roman,serif" font-size="10.00">play</text>
</g>
<!-- SportGoverningBody -->
<g id="node8" class="node"><title>SportGoverningBody</title>
<polygon fill="#78a9ff" stroke="#0443cc" points="310.355,-341.395 174.355,-341.395 174.355,-305.395 310.355,-305.395 310.355,-341.395"/>
<text text-anchor="middle" x="242.355" y="-318.795" font-family="Times New Roman,serif" font-size="14.00">SportGoverningBody</text>
</g>
<!-- SportGoverningBody&#45;&gt;SportOrganization -->
<g id="edge28" class="edge"><title>SportGoverningBody&#45;&gt;SportOrganization</title>
<path fill="none" stroke="black" d="M265.521,-341.658C278.546,-351.927 294.978,-364.882 309.101,-376.016"/>
<polygon fill="black" stroke="black" points="307.087,-378.884 317.107,-382.327 311.421,-373.387 307.087,-378.884"/>
<text text-anchor="middle" x="281.482" y="-372.125" font-family="Times New Roman,serif" font-size="10.00">subClassOf</text>
</g>
<!-- SportsClub&#45;&gt;SportOrganization -->
<g id="edge30" class="edge"><title>SportsClub&#45;&gt;SportOrganization</title>
<path fill="none" stroke="black" d="M415.113,-443.696C404.285,-437.454 391.994,-430.369 380.541,-423.767"/>
<polygon fill="black" stroke="black" points="381.991,-420.563 371.579,-418.601 378.495,-426.627 381.991,-420.563"/>
<text text-anchor="middle" x="386.107" y="-441.011" font-family="Times New Roman,serif" font-size="10.00">subClassOf</text>
</g>
<!-- Sport -->
<g id="node12" class="node"><title>Sport</title>
<polygon fill="#78a9ff" stroke="#0443cc" points="72.6241,-540.735 18.6241,-540.735 18.6241,-504.735 72.6241,-504.735 72.6241,-540.735"/>
<text text-anchor="middle" x="45.6241" y="-518.135" font-family="Times New Roman,serif" font-size="14.00">Sport</text>
</g>
<!-- Sport&#45;&gt;Activity -->
<g id="edge36" class="edge"><title>Sport&#45;&gt;Activity</title>
<path fill="none" stroke="black" d="M72.6311,-521.583C121.814,-519.485 226.233,-515.032 284.031,-512.567"/>
<polygon fill="black" stroke="black" points="284.415,-516.054 294.257,-512.131 284.117,-509.06 284.415,-516.054"/>
<text text-anchor="middle" x="183.439" y="-520.857" font-family="Times New Roman,serif" font-size="10.00">subClassOf</text>
</g>
<!-- Game -->
<g id="node13" class="node"><title>Game</title>
<polygon fill="#78a9ff" stroke="#0443cc" points="88.6119,-766.517 34.6119,-766.517 34.6119,-730.517 88.6119,-730.517 88.6119,-766.517"/>
<text text-anchor="middle" x="61.6119" y="-743.917" font-family="Times New Roman,serif" font-size="14.00">Game</text>
</g>
<!-- Game&#45;&gt;Activity -->
<g id="edge38" class="edge"><title>Game&#45;&gt;Activity</title>
<path fill="none" stroke="black" d="M84.5594,-730.391C127.635,-696.321 217.481,-625.026 230.801,-612.584 256.962,-588.148 284.453,-557.697 302.867,-536.506"/>
<polygon fill="black" stroke="black" points="305.574,-538.726 309.459,-528.869 300.275,-534.152 305.574,-538.726"/>
<text text-anchor="middle" x="219.405" y="-640.436" font-family="Times New Roman,serif" font-size="10.00">subClassOf</text>
</g>
<!-- Location -->
<g id="node14" class="node"><title>Location</title>
<polygon fill="#78a9ff" stroke="#0443cc" points="653.26,-366.273 587.26,-366.273 587.26,-330.273 653.26,-330.273 653.26,-366.273"/>
<text text-anchor="middle" x="620.26" y="-343.673" font-family="Times New Roman,serif" font-size="14.00">Location</text>
</g>
<!-- street -->
<g id="node32" class="node"><title>street</title>
<ellipse fill="#eeeeee" stroke="gray" cx="775.977" cy="-335.495" rx="27" ry="18"/>
<text text-anchor="middle" x="775.977" y="-332.495" font-family="Times New Roman,serif" font-size="10.00">street</text>
</g>
<!-- Location&#45;&gt;street -->
<g id="edge40" class="edge"><title>Location&#45;&gt;street</title>
<path fill="none" stroke="black" d="M653.284,-345.563C681.763,-343.226 722.382,-339.893 748.958,-337.712"/>
<text text-anchor="middle" x="701.834" y="-330.579" font-family="Times New Roman,serif" font-size="10.00">xsd:string</text>
</g>
<!-- RankingSystem -->
<g id="node15" class="node"><title>RankingSystem</title>
<polygon fill="#78a9ff" stroke="#0443cc" points="368.401,-218.11 264.401,-218.11 264.401,-182.11 368.401,-182.11 368.401,-218.11"/>
<text text-anchor="middle" x="316.401" y="-195.51" font-family="Times New Roman,serif" font-size="14.00">RankingSystem</text>
</g>
<!-- EliminationSystem -->
<g id="node16" class="node"><title>EliminationSystem</title>
<polygon fill="#78a9ff" stroke="#0443cc" points="294.421,-61.4137 176.421,-61.4137 176.421,-25.4137 294.421,-25.4137 294.421,-61.4137"/>
<text text-anchor="middle" x="235.421" y="-38.8137" font-family="Times New Roman,serif" font-size="14.00">EliminationSystem</text>
</g>
<!-- EliminationSystem&#45;&gt;RankingSystem -->
<g id="edge6" class="edge"><title>EliminationSystem&#45;&gt;RankingSystem</title>
<path fill="none" stroke="black" d="M244.869,-61.6954C259.01,-89.0585 285.776,-140.851 302.255,-172.737"/>
<polygon fill="black" stroke="black" points="299.313,-174.668 307.013,-181.945 305.531,-171.454 299.313,-174.668"/>
<text text-anchor="middle" x="258.896" y="-126.733" font-family="Times New Roman,serif" font-size="10.00">subClassOf</text>
</g>
<!-- LadderSystem -->
<g id="node17" class="node"><title>LadderSystem</title>
<polygon fill="#78a9ff" stroke="#0443cc" points="440.953,-59.5276 342.953,-59.5276 342.953,-23.5276 440.953,-23.5276 440.953,-59.5276"/>
<text text-anchor="middle" x="391.953" y="-36.9276" font-family="Times New Roman,serif" font-size="14.00">LadderSystem</text>
</g>
<!-- LadderSystem&#45;&gt;RankingSystem -->
<g id="edge8" class="edge"><title>LadderSystem&#45;&gt;RankingSystem</title>
<path fill="none" stroke="black" d="M383.286,-59.719C370.149,-87.2937 345.094,-139.883 329.658,-172.285"/>
<polygon fill="black" stroke="black" points="326.341,-171.109 325.2,-181.642 332.66,-174.12 326.341,-171.109"/>
<text text-anchor="middle" x="337.332" y="-109.495" font-family="Times New Roman,serif" font-size="10.00">subClassOf</text>
</g>
<!-- GroupSystem -->
<g id="node18" class="node"><title>GroupSystem</title>
<polygon fill="#78a9ff" stroke="#0443cc" points="218.031,-232.407 124.031,-232.407 124.031,-196.407 218.031,-196.407 218.031,-232.407"/>
<text text-anchor="middle" x="171.031" y="-209.807" font-family="Times New Roman,serif" font-size="14.00">GroupSystem</text>
</g>
<!-- GroupSystem&#45;&gt;RankingSystem -->
<g id="edge10" class="edge"><title>GroupSystem&#45;&gt;RankingSystem</title>
<path fill="none" stroke="black" d="M218.228,-209.765C229.692,-208.638 242.125,-207.415 254.167,-206.231"/>
<polygon fill="black" stroke="black" points="254.551,-209.71 264.16,-205.248 253.866,-202.743 254.551,-209.71"/>
<text text-anchor="middle" x="241.096" y="-212.516" font-family="Times New Roman,serif" font-size="10.00">subClassOf</text>
</g>
<!-- RoundRobin -->
<g id="node19" class="node"><title>RoundRobin</title>
<polygon fill="#78a9ff" stroke="#0443cc" points="89.5,-339.799 1.5,-339.799 1.5,-303.799 89.5,-303.799 89.5,-339.799"/>
<text text-anchor="middle" x="45.5" y="-317.199" font-family="Times New Roman,serif" font-size="14.00">RoundRobin</text>
</g>
<!-- RoundRobin&#45;&gt;GroupSystem -->
<g id="edge12" class="edge"><title>RoundRobin&#45;&gt;GroupSystem</title>
<path fill="none" stroke="black" d="M66.7945,-303.581C87.4435,-285.916 118.931,-258.978 141.896,-239.332"/>
<polygon fill="black" stroke="black" points="144.308,-241.874 149.632,-232.714 139.758,-236.555 144.308,-241.874"/>
<text text-anchor="middle" x="97.169" y="-253.185" font-family="Times New Roman,serif" font-size="10.00">subClassOf</text>
</g>
<!-- SwissSystem -->
<g id="node20" class="node"><title>SwissSystem</title>
<polygon fill="#78a9ff" stroke="#0443cc" points="95.5071,-94.0931 5.50708,-94.0931 5.50708,-58.0931 95.5071,-58.0931 95.5071,-94.0931"/>
<text text-anchor="middle" x="50.5071" y="-71.4931" font-family="Times New Roman,serif" font-size="14.00">SwissSystem</text>
</g>
<!-- SwissSystem&#45;&gt;GroupSystem -->
<g id="edge14" class="edge"><title>SwissSystem&#45;&gt;GroupSystem</title>
<path fill="none" stroke="black" d="M66.2634,-94.1752C87.2864,-118.301 124.637,-161.165 148.595,-188.66"/>
<polygon fill="black" stroke="black" points="146.062,-191.08 155.27,-196.32 151.34,-186.482 146.062,-191.08"/>
<text text-anchor="middle" x="123.894" y="-131.394" font-family="Times New Roman,serif" font-size="10.00">subClassOf</text>
</g>
<!-- Event -->
<g id="node21" class="node"><title>Event</title>
<polygon fill="#78a9ff" stroke="#0443cc" points="554.68,-301.153 474.68,-301.153 474.68,-265.153 554.68,-265.153 554.68,-301.153"/>
<text text-anchor="middle" x="514.68" y="-278.553" font-family="Times New Roman,serif" font-size="14.00">event:Event</text>
</g>
<!-- Tournament -->
<g id="node22" class="node"><title>Tournament</title>
<polygon fill="#78a9ff" stroke="#0443cc" points="430.087,-317.89 346.087,-317.89 346.087,-281.89 430.087,-281.89 430.087,-317.89"/>
<text text-anchor="middle" x="388.087" y="-295.29" font-family="Times New Roman,serif" font-size="14.00">Tournament</text>
</g>
<!-- Tournament&#45;&gt;SportOrganization -->
<g id="edge46" class="edge"><title>Tournament&#45;&gt;SportOrganization</title>
<path fill="none" stroke="black" d="M379.287,-318.336C371.982,-333.646 361.486,-355.647 353.195,-373.023"/>
<polygon fill="black" stroke="black" points="349.998,-371.597 348.851,-382.13 356.316,-374.611 349.998,-371.597"/>
<text text-anchor="middle" x="381.03" y="-355.315" font-family="Times New Roman,serif" font-size="10.00">organizedBy</text>
</g>
<!-- Tournament&#45;&gt;RankingSystem -->
<g id="edge44" class="edge"><title>Tournament&#45;&gt;RankingSystem</title>
<path fill="none" stroke="black" d="M374.939,-281.589C363.924,-266.258 348.052,-244.166 335.614,-226.852"/>
<polygon fill="black" stroke="black" points="338.143,-224.374 329.466,-218.295 332.458,-228.459 338.143,-224.374"/>
<text text-anchor="middle" x="367.242" y="-236.997" font-family="Times New Roman,serif" font-size="10.00">rankingMethod</text>
</g>
<!-- Tournament&#45;&gt;Event -->
<g id="edge42" class="edge"><title>Tournament&#45;&gt;Event</title>
<path fill="none" stroke="black" d="M430.241,-294.317C441.144,-292.875 452.993,-291.309 464.272,-289.817"/>
<polygon fill="black" stroke="black" points="464.972,-293.255 474.427,-288.475 464.054,-286.316 464.972,-293.255"/>
<text text-anchor="middle" x="451.5" y="-280.374" font-family="Times New Roman,serif" font-size="10.00">subClassOf</text>
</g>
<!-- Tournament&#45;&gt;Tournament -->
<g id="edge48" class="edge"><title>Tournament&#45;&gt;Tournament</title>
<path fill="none" stroke="black" d="M430.143,-306.535C440.431,-306.042 448.087,-303.828 448.087,-299.89 448.087,-297.429 445.096,-295.641 440.341,-294.526"/>
<polygon fill="black" stroke="black" points="440.501,-291.019 430.143,-293.246 439.629,-297.964 440.501,-291.019"/>
<text text-anchor="middle" x="472.087" y="-296.89" font-family="Times New Roman,serif" font-size="10.00">qualifiesFor</text>
</g>
<!-- League -->
<g id="node23" class="node"><title>League</title>
<polygon fill="#78a9ff" stroke="#0443cc" points="639.313,-220.818 583.313,-220.818 583.313,-184.818 639.313,-184.818 639.313,-220.818"/>
<text text-anchor="middle" x="611.313" y="-198.218" font-family="Times New Roman,serif" font-size="14.00">League</text>
</g>
<!-- League&#45;&gt;Tournament -->
<g id="edge52" class="edge"><title>League&#45;&gt;Tournament</title>
<path fill="none" stroke="black" d="M583.238,-211.312C553.36,-220.725 504.987,-237.043 465.08,-255.553 451.794,-261.715 437.771,-269.406 425.386,-276.644"/>
<polygon fill="black" stroke="black" points="423.504,-273.691 416.691,-281.805 427.077,-279.71 423.504,-273.691"/>
<text text-anchor="middle" x="492.67" y="-226.555" font-family="Times New Roman,serif" font-size="10.00">subClassOf</text>
</g>
<!-- season -->
<g id="node29" class="node"><title>season</title>
<ellipse fill="#eeeeee" stroke="gray" cx="550.317" cy="-43.4847" rx="27.0602" ry="18"/>
<text text-anchor="middle" x="550.317" y="-40.4847" font-family="Times New Roman,serif" font-size="10.00">season</text>
</g>
<!-- League&#45;&gt;season -->
<g id="edge54" class="edge"><title>League&#45;&gt;season</title>
<path fill="none" stroke="black" d="M604.316,-184.541C592.488,-153.642 568.692,-91.4835 557.047,-61.0637"/>
<text text-anchor="middle" x="562.613" y="-125.623" font-family="Times New Roman,serif" font-size="10.00">xsd:string</text>
</g>
<!-- leagueSystemLevel -->
<g id="node30" class="node"><title>leagueSystemLevel</title>
<ellipse fill="#eeeeee" stroke="gray" cx="779.263" cy="-201.266" rx="56.0255" ry="18"/>
<text text-anchor="middle" x="779.263" y="-198.266" font-family="Times New Roman,serif" font-size="10.00">leagueSystemLevel</text>
</g>
<!-- League&#45;&gt;leagueSystemLevel -->
<g id="edge56" class="edge"><title>League&#45;&gt;leagueSystemLevel</title>
<path fill="none" stroke="black" d="M639.424,-202.559C662.209,-202.348 695.036,-202.045 723.159,-201.785"/>
<text text-anchor="middle" x="679.29" y="-205.19" font-family="Times New Roman,serif" font-size="10.00">xsd:int</text>
</g>
<!-- division -->
<g id="node31" class="node"><title>division</title>
<ellipse fill="#eeeeee" stroke="gray" cx="748.78" cy="-41" rx="28.9661" ry="18"/>
<text text-anchor="middle" x="748.78" y="-38" font-family="Times New Roman,serif" font-size="10.00">division</text>
</g>
<!-- League&#45;&gt;division -->
<g id="edge58" class="edge"><title>League&#45;&gt;division</title>
<path fill="none" stroke="black" d="M626.815,-184.57C653.919,-152.665 709.477,-87.2653 735.18,-57.0085"/>
<text text-anchor="middle" x="694.523" y="-128.171" font-family="Times New Roman,serif" font-size="10.00">rdfs:Literal</text>
</g>
<!-- Playoff -->
<g id="node24" class="node"><title>Playoff</title>
<polygon fill="#78a9ff" stroke="#0443cc" points="484.987,-202.906 428.987,-202.906 428.987,-166.906 484.987,-166.906 484.987,-202.906"/>
<text text-anchor="middle" x="456.987" y="-180.306" font-family="Times New Roman,serif" font-size="14.00">Playoff</text>
</g>
<!-- Playoff&#45;&gt;Tournament -->
<g id="edge50" class="edge"><title>Playoff&#45;&gt;Tournament</title>
<path fill="none" stroke="black" d="M446.07,-203.126C434.781,-221.965 417.034,-251.581 404.146,-273.089"/>
<polygon fill="black" stroke="black" points="401.091,-271.379 398.953,-281.756 407.096,-274.977 401.091,-271.379"/>
<text text-anchor="middle" x="406.553" y="-230.371" font-family="Times New Roman,serif" font-size="10.00">subClassOf</text>
</g>
<!-- Match -->
<g id="node25" class="node"><title>Match</title>
<polygon fill="#78a9ff" stroke="#0443cc" points="511.166,-396.663 457.166,-396.663 457.166,-360.663 511.166,-360.663 511.166,-396.663"/>
<text text-anchor="middle" x="484.166" y="-374.063" font-family="Times New Roman,serif" font-size="14.00">Match</text>
</g>
<!-- Match&#45;&gt;Activity -->
<g id="edge70" class="edge"><title>Match&#45;&gt;Activity</title>
<path fill="none" stroke="black" d="M458.705,-396.723C444.453,-406.503 426.184,-418.503 409.206,-428.059 403.693,-431.162 401.452,-430.424 396.342,-434.156 376.79,-448.435 358.223,-468.543 344.883,-484.585"/>
<polygon fill="black" stroke="black" points="341.999,-482.584 338.407,-492.551 347.431,-487 341.999,-482.584"/>
<text text-anchor="middle" x="396.709" y="-419.153" font-family="Times New Roman,serif" font-size="10.00">play</text>
</g>
<!-- Match&#45;&gt;Location -->
<g id="edge64" class="edge"><title>Match&#45;&gt;Location</title>
<path fill="none" stroke="black" d="M511.379,-372.586C530.129,-368.399 555.443,-362.746 576.944,-357.945"/>
<polygon fill="black" stroke="black" points="577.835,-361.333 586.831,-355.737 576.309,-354.501 577.835,-361.333"/>
<text text-anchor="middle" x="548.011" y="-352.183" font-family="Times New Roman,serif" font-size="10.00">place</text>
</g>
<!-- Match&#45;&gt;Event -->
<g id="edge62" class="edge"><title>Match&#45;&gt;Event</title>
<path fill="none" stroke="black" d="M490.049,-360.248C494.51,-346.285 500.717,-326.859 505.783,-311"/>
<polygon fill="black" stroke="black" points="509.209,-311.778 508.918,-301.188 502.541,-309.648 509.209,-311.778"/>
<text text-anchor="middle" x="481.496" y="-322.679" font-family="Times New Roman,serif" font-size="10.00">subClassOf</text>
</g>
<!-- Match&#45;&gt;Tournament -->
<g id="edge68" class="edge"><title>Match&#45;&gt;Tournament</title>
<path fill="none" stroke="black" d="M461.882,-360.393C448.907,-349.755 432.372,-336.199 418.245,-324.616"/>
<polygon fill="black" stroke="black" points="420.202,-321.695 410.25,-318.061 415.764,-327.108 420.202,-321.695"/>
<text text-anchor="middle" x="445.9" y="-323.091" font-family="Times New Roman,serif" font-size="10.00">partOfTournament</text>
</g>
<!-- Match&#45;&gt;Match -->
<g id="edge60" class="edge"><title>Match&#45;&gt;Match</title>
<path fill="none" stroke="black" d="M511.406,-385.406C521.19,-385.551 529.166,-383.304 529.166,-378.663 529.166,-375.835 526.204,-373.896 521.676,-372.845"/>
<polygon fill="black" stroke="black" points="521.68,-369.331 511.406,-371.92 521.052,-376.303 521.68,-369.331"/>
<text text-anchor="middle" x="597.166" y="-381.663" font-family="Times New Roman,serif" font-size="10.00">subMatch</text>
<text text-anchor="middle" x="597.166" y="-369.663" font-family="Times New Roman,serif" font-size="10.00">(subPropertyOf event:sub_event)</text>
</g>
<!-- TeamScore -->
<g id="node26" class="node"><title>TeamScore</title>
<polygon fill="#78a9ff" stroke="#0443cc" points="505.13,-568.512 425.13,-568.512 425.13,-532.512 505.13,-532.512 505.13,-568.512"/>
<text text-anchor="middle" x="465.13" y="-545.912" font-family="Times New Roman,serif" font-size="14.00">TeamScore</text>
</g>
<!-- Match&#45;&gt;TeamScore -->
<g id="edge66" class="edge"><title>Match&#45;&gt;TeamScore</title>
<path fill="none" stroke="black" d="M490.033,-396.928C496.276,-419.075 504.269,-457.403 496.542,-489.356 493.686,-501.17 488.132,-513.261 482.478,-523.54"/>
<polygon fill="black" stroke="black" points="479.322,-522.005 477.332,-532.411 485.377,-525.517 479.322,-522.005"/>
<text text-anchor="middle" x="517.638" y="-463.339" font-family="Times New Roman,serif" font-size="10.00">outcome</text>
</g>
<!-- TeamScore&#45;&gt;Athlete -->
<g id="edge74" class="edge"><title>TeamScore&#45;&gt;Athlete</title>
<path fill="none" stroke="black" d="M471.494,-568.89C476.728,-584.004 484.227,-605.66 490.197,-622.897"/>
<polygon fill="black" stroke="black" points="486.926,-624.148 493.506,-632.452 493.54,-621.858 486.926,-624.148"/>
<text text-anchor="middle" x="500.573" y="-591.882" font-family="Times New Roman,serif" font-size="10.00">participant</text>
</g>
<!-- TeamScore&#45;&gt;Team -->
<g id="edge72" class="edge"><title>TeamScore&#45;&gt;Team</title>
<path fill="none" stroke="black" d="M505.391,-560.588C527.678,-566.166 555.184,-573.05 576.926,-578.491"/>
<polygon fill="black" stroke="black" points="576.228,-581.925 586.779,-580.957 577.928,-575.134 576.228,-581.925"/>
<text text-anchor="middle" x="544.289" y="-577.824" font-family="Times New Roman,serif" font-size="10.00">participant</text>
</g>
<!-- score -->
<g id="node33" class="node"><title>score</title>
<ellipse fill="#eeeeee" stroke="gray" cx="355.451" cy="-633.774" rx="27" ry="18"/>
<text text-anchor="middle" x="355.451" y="-630.774" font-family="Times New Roman,serif" font-size="10.00">score</text>
</g>
<!-- TeamScore&#45;&gt;score -->
<g id="edge76" class="edge"><title>TeamScore&#45;&gt;score</title>
<path fill="none" stroke="black" d="M441.331,-568.578C420.918,-584.075 391.95,-606.066 373.428,-620.127"/>
<text text-anchor="middle" x="414.67" y="-602.891" font-family="Times New Roman,serif" font-size="10.00">xsd:int</text>
</g>
<!-- rank -->
<g id="node34" class="node"><title>rank</title>
<ellipse fill="#eeeeee" stroke="gray" cx="208.529" cy="-596.31" rx="27" ry="18"/>
<text text-anchor="middle" x="208.529" y="-593.31" font-family="Times New Roman,serif" font-size="10.00">rank</text>
</g>
<!-- TeamScore&#45;&gt;rank -->
<g id="edge78" class="edge"><title>TeamScore&#45;&gt;rank</title>
<path fill="none" stroke="black" d="M425.036,-557.668C371.896,-567.152 279.628,-583.62 234.665,-591.645"/>
<text text-anchor="middle" x="325.784" y="-563.204" font-family="Times New Roman,serif" font-size="10.00">xsd:int</text>
</g>
<!-- homeAdvantage -->
<g id="node35" class="node"><title>homeAdvantage</title>
<ellipse fill="#eeeeee" stroke="gray" cx="587.864" cy="-465.239" rx="49.911" ry="18"/>
<text text-anchor="middle" x="587.864" y="-462.239" font-family="Times New Roman,serif" font-size="10.00">homeAdvantage</text>
</g>
<!-- TeamScore&#45;&gt;homeAdvantage -->
<g id="edge80" class="edge"><title>TeamScore&#45;&gt;homeAdvantage</title>
<path fill="none" stroke="black" d="M491.158,-532.428C512.972,-517.272 543.822,-495.838 564.77,-481.284"/>
<text text-anchor="middle" x="537.289" y="-516.63" font-family="Times New Roman,serif" font-size="10.00">xsd:boolean</text>
</g>
</g>
</svg>
